# xmcd
#
# Track frame offsets: 
#        150
#        19186
#        33235
#        48694
#        60983
#        76115
#        96014
#        114285
#        136134
#        154061
#        169707
#        183919
#        207445
#
# Disc length: 2999 seconds
#
# Revision: 0
# Processed by: cddbd v1.5.2PL0 Copyright (c) Steve Scherf et al.
# Submitted via: ExactAudioCopy v0.95b4
#
DISCID=9b0bb50d
DTITLE=Eric Clapton - From The Cradle To The Fillmore West CD 1
DYEAR=1995
DGENRE=Blues
TTITLE0=Motherless Child
TTITLE1=Malted Milk
TTITLE2=How Long Blues
TTITLE3=Kidman Blues
TTITLE4=County Jail Blues
TTITLE5=44
TTITLE6=Blues All Day Long
TTITLE7=Standin' Around Cryin'
TTITLE8=Hoochie Coochie Man
TTITLE9=It Hurts Me Too
TTITLE10=Blues Before Sunrise
TTITLE11=Third Degree
TTITLE12=Reconsider Baby
EXTD=
EXTT0=
EXTT1=
EXTT2=
EXTT3=
EXTT4=
EXTT5=
EXTT6=
EXTT7=
EXTT8=
EXTT9=
EXTT10=
EXTT11=
EXTT12=
PLAYORDER=
